# xmcd
#
# Track frame offsets:
#	150
#	20595
#	41772
#	65372
#	83715
#	104512
#	126600
#	153725
#	176012
#	201040
#	223060
#	246280
#
# Disc length: 3591 seconds
#
# Revision: 1
# Processed by: cddbd v1.5.1PL0 Copyright (c) Steve Scherf et al.
# Submitted via: CDex 1.50Beta5
#
DISCID=b30e050c
DTITLE=PEARL - GOOD TO SEE YOU
DYEAR=1994
DGENRE=Pop
TTITLE0=泣きくずれる君を抱きしめて
TTITLE1=REAL WORLD
TTITLE2=FEEL SO BAD
TTITLE3=風よ
TTITLE4=誰があの空涙の色に
TTITLE5=口唇に気高さを
TTITLE6=ALL RIGHT
TTITLE7=風がやんだら
TTITLE8=落葉のAIR MAIL
TTITLE9=哀しいほどのBlue Sky
TTITLE10=CRYING BIRD
TTITLE11=Life
EXTD=
EXTT0=
EXTT1=
EXTT2=
EXTT3=
EXTT4=
EXTT5=
EXTT6=
EXTT7=
EXTT8=
EXTT9=
EXTT10=
EXTT11=
PLAYORDER=
